<?xml version="1.0" encoding="iso-8859-1"?>
<!-- Generator: Adobe Illustrator 19.0.0, SVG Export Plug-In . SVG Version: 6.00 Build 0)  -->
<svg xmlns="http://www.w3.org/2000/svg" xmlns:xlink="http://www.w3.org/1999/xlink" version="1.1" id="Layer_1" x="0px" y="0px" viewBox="0 0 512 512" style="enable-background:new 0 0 512 512;" xml:space="preserve" width="512" height="512">
<g>
	<polygon style="fill:#FAECD8;" points="390.5,442.599 356.3,512 65.7,512 31.5,442.599  "/>
	<path style="fill:#64C37D;" d="M422,181l-15,30h15c33.091,0,60,26.909,60,60s-26.909,60-60,60h-47.93v30H422   c49.629,0,90-40.371,90-90S471.629,181,422,181z"/>
	<path style="fill:#C2FB3B;" d="M422,181v15c0,106.199-42.9,202.8-112.2,252.299H112.2C42.9,398.8,0,302.199,0,196v-15h241   l15.901,14.099L271,181H422z"/>
	<path style="fill:#91DC5A;" d="M422,181v15c0,106.199-42.9,202.8-112.2,252.299H211V181h30l15.901,14.099L271,181H422z"/>
	<g>
		<rect x="121" y="60" style="fill:#FFCEBF;" width="30" height="90"/>
	</g>
	<g>
		<rect x="121" y="0" style="fill:#FFCEBF;" width="30" height="30"/>
	</g>
	<g>
		<rect x="301" y="60" style="fill:#FFB99C;" width="30" height="90"/>
	</g>
	<g>
		<rect x="301" y="0" style="fill:#FFB99C;" width="30" height="30"/>
	</g>
	<g>
		<rect x="211" y="0" style="fill:#FFB99C;" width="30" height="90"/>
	</g>
	<g>
		<rect x="211" y="120" style="fill:#FFB99C;" width="30" height="30"/>
	</g>
	<polygon style="fill:#9F7852;" points="271,249.789 256.938,229.75 241,249.789 211,279.789 211,361 301,361 301,279.789  "/>
	<polygon style="fill:#F4D7AF;" points="390.5,442.599 356.3,512 211,512 211,442.599  "/>
	<g>
		<rect y="421" style="fill:#F4D7AF;" width="422" height="30"/>
	</g>
	<rect x="211" y="421" style="fill:#DABBA6;" width="211" height="30"/>
	<rect x="241" y="181" style="fill:#715539;" width="30" height="68.699"/>
</g>















</svg>
